# xmcd
#
# Track frame offsets:
# 150
# 9523
# 19996
# 27227
# 42881
# 56584
# 70300
# 79410
# 87850
# 100006
# 113140
# 123785
# 136998
# 148380
# 169789
# 182892
# 193766
#
# Disc length: 2744 seconds
#
#
# Revision: 0
# Processed by: cddbd v1.5.2PL0 Copyright (c) Steve Scherf et al.
# Submitted via: FreeRIP 2.951 
#
DISCID=eb0ab611
DTITLE=Sam McGee - Grand Dad of the Country Guitar Pickers
DYEAR=1900
DGENRE=Blues
TTITLE0=Sam McGee Stomp
TTITLE1=Fuller Blues
TTITLE2=Burglar Bold
TTITLE3=Dew Drop
TTITLE4=Jesse James
TTITLE5=Ching Chong
TTITLE6=Blackberry Blossom
TTITLE7=Wheels
TTITLE8=How Great Thou art
TTITLE9=When The Wagon Was New
TTITLE10=Franklin Blues
TTITLE11=Penitentiary Blues
TTITLE12=Pig Ankle Rag
TTITLE13=Railroad Blues
TTITLE14=Buckdancer's Choice
TTITLE15=Black Mountain Rag
TTITLE16=Wayfaring Stranger
EXTD=Arhoolie CD 9009
EXTT0=
EXTT1=
EXTT2=
EXTT3=
EXTT4=
EXTT5=
EXTT6=
EXTT7=
EXTT8=
EXTT9=
EXTT10=
EXTT11=
EXTT12=
EXTT13=
EXTT14=
EXTT15=
EXTT16=
PLAYORDER=
